<?xml version="1.0" encoding="UTF-8"?>
      <svg
        xmlns="http://www.w3.org/2000/svg"
        xmlns:xlink="http://www.w3.org/1999/xlink"
        viewBox="0 0 27.99 32.31"
      >
        <defs>
          <style>
            .cls-1 {
              fill: url(#radial-gradient-9);
            }

            .cls-1,
            .cls-2,
            .cls-3,
            .cls-4,
            .cls-5,
            .cls-6,
            .cls-7,
            .cls-8 {
              stroke-width: 0.58px;
            }

            .cls-1,
            .cls-2,
            .cls-3,
            .cls-4,
            .cls-5,
            .cls-6,
            .cls-7,
            .cls-8,
            .cls-9,
            .cls-10,
            .cls-11,
            .cls-12,
            .cls-13,
            .cls-14,
            .cls-15,
            .cls-16 {
              stroke: #082b61;
              stroke-linecap: round;
              stroke-linejoin: round;
            }

            .cls-2 {
              fill: url(#radial-gradient-3);
            }

            .cls-3 {
              fill: url(#radial-gradient-8);
            }

            .cls-4 {
              fill: url(#radial-gradient-2);
            }

            .cls-5 {
              fill: url(#radial-gradient-5);
            }

            .cls-6 {
              fill: url(#radial-gradient-4);
            }

            .cls-7 {
              fill: url(#radial-gradient-7);
            }

            .cls-8 {
              fill: url(#radial-gradient-6);
            }

            .cls-17,
            .cls-18,
            .cls-19,
            .cls-20,
            .cls-21,
            .cls-22 {
              mix-blend-mode: overlay;
            }

            .cls-17,
            .cls-23 {
              fill: #fff;
            }

            .cls-24 {
              fill: url(#radial-gradient);
            }

            .cls-25 {
              isolation: isolate;
            }

            .cls-26 {
              fill: #2868c7;
              mix-blend-mode: multiply;
              opacity: 0.7;
            }

            .cls-18 {
              fill: url(#linear-gradient);
            }

            .cls-9 {
              fill: url(#radial-gradient-18);
            }

            .cls-9,
            .cls-10,
            .cls-11,
            .cls-12,
            .cls-13,
            .cls-14,
            .cls-15,
            .cls-16 {
              stroke-width: 0.36px;
            }

            .cls-10 {
              fill: url(#radial-gradient-19);
            }

            .cls-11 {
              fill: url(#radial-gradient-15);
            }

            .cls-12 {
              fill: url(#radial-gradient-17);
            }

            .cls-13 {
              fill: url(#radial-gradient-12);
            }

            .cls-14 {
              fill: url(#radial-gradient-16);
            }

            .cls-15 {
              fill: url(#radial-gradient-13);
            }

            .cls-16 {
              fill: url(#radial-gradient-14);
            }

            .cls-19 {
              fill: url(#linear-gradient-2);
            }

            .cls-20 {
              fill: url(#linear-gradient-3);
            }

            .cls-21 {
              fill: url(#linear-gradient-4);
            }

            .cls-27 {
              fill: url(#radial-gradient-10);
            }

            .cls-28 {
              fill: url(#radial-gradient-11);
            }

            .cls-29 {
              fill: url(#radial-gradient-20);
            }

            .cls-30 {
              fill: #082b61;
            }

            .hehe {
              animation: idleHehe 3.5s ease-in-out infinite;
            }
            
            .kecil {
              animation: idleKecil 4s ease-in-out infinite;
            }
            
            @keyframes idleHehe {
              0%, 100% {
                transform: scale(1);
                opacity: 1;
              }
              50% {
                transform: scale(1.06); /* lebih besar dari sebelumnya */
                opacity: 0.92;
              }
            }
            
            @keyframes idleKecil {
              0%, 100% {
                transform: scale(1);
                opacity: 1;
              }
              50% {
                transform: scale(0.94); /* lebih kecil dari sebelumnya */
                opacity: 0.85;
              }
            }
            
          </style>
          <radialGradient
            id="radial-gradient"
            cx="137.24"
            cy="255.32"
            fx="137.24"
            fy="255.32"
            r="12.44"
            gradientTransform="translate(-45.79 -268.21) rotate(17.31)"
            gradientUnits="userSpaceOnUse"
          >
            <stop offset="0" stop-color="#1372ff" />
            <stop offset="1" stop-color="#0e52b8" />
          </radialGradient>
          <radialGradient
            id="radial-gradient-2"
            cx="137.32"
            cy="260.86"
            fx="137.32"
            fy="260.86"
            r="10.67"
            xlink:href="#radial-gradient"
          />
          <radialGradient
            id="radial-gradient-3"
            cx="137.32"
            cy="255.49"
            fx="137.32"
            fy="255.49"
            r="12.07"
            xlink:href="#radial-gradient"
          />
          <radialGradient
            id="radial-gradient-4"
            cx="134.25"
            cy="260.86"
            fx="134.25"
            fy="260.86"
            r="1.6"
            xlink:href="#radial-gradient"
          />
          <radialGradient
            id="radial-gradient-5"
            cx="137.32"
            cy="255.49"
            fx="137.32"
            fy="255.49"
            r="12.07"
            xlink:href="#radial-gradient"
          />
          <radialGradient
            id="radial-gradient-6"
            cx="137.32"
            cy="255.49"
            fx="137.32"
            fy="255.49"
            r="12.07"
            xlink:href="#radial-gradient"
          />
          <radialGradient
            id="radial-gradient-7"
            cx="137.32"
            cy="255.49"
            fx="137.32"
            fy="255.49"
            r="12.07"
            xlink:href="#radial-gradient"
          />
          <radialGradient
            id="radial-gradient-8"
            cx="137.32"
            cy="255.49"
            fx="137.32"
            fy="255.49"
            r="12.07"
            xlink:href="#radial-gradient"
          />
          <radialGradient
            id="radial-gradient-9"
            cx="137.32"
            cy="255.49"
            fx="137.32"
            fy="255.49"
            r="12.07"
            xlink:href="#radial-gradient"
          />
          <radialGradient
            id="radial-gradient-10"
            cx="137.1"
            cy="255"
            fx="137.1"
            fy="255"
            r="13.15"
            xlink:href="#radial-gradient"
          />
          <linearGradient
            id="linear-gradient"
            x1="140.17"
            y1="252.26"
            x2="136.09"
            y2="266.82"
            gradientTransform="translate(-45.79 -268.21) rotate(17.31)"
            gradientUnits="userSpaceOnUse"
          >
            <stop offset="0" stop-color="#fff" />
            <stop offset="1" stop-color="#fff" stop-opacity="0" />
          </linearGradient>
          <linearGradient
            id="linear-gradient-2"
            x1="143.89"
            y1="253.31"
            x2="139.81"
            y2="267.86"
            xlink:href="#linear-gradient"
          />
          <radialGradient
            id="radial-gradient-11"
            cx="287.34"
            cy="-956.37"
            fx="287.34"
            fy="-956.37"
            r="7.76"
            gradientTransform="translate(489.04 884.95) rotate(-44.78)"
            xlink:href="#radial-gradient"
          />
          <radialGradient
            id="radial-gradient-12"
            cx="287.38"
            cy="-952.91"
            fx="287.38"
            fy="-952.91"
            r="6.66"
            gradientTransform="translate(489.04 884.95) rotate(-44.78)"
            xlink:href="#radial-gradient"
          />
          <radialGradient
            id="radial-gradient-13"
            cx="287.38"
            cy="-956.27"
            fx="287.38"
            fy="-956.27"
            r="7.53"
            gradientTransform="translate(489.04 884.95) rotate(-44.78)"
            xlink:href="#radial-gradient"
          />
          <radialGradient
            id="radial-gradient-14"
            cx="285.47"
            cy="-952.91"
            fx="285.47"
            fy="-952.91"
            r="1"
            gradientTransform="translate(489.04 884.95) rotate(-44.78)"
            xlink:href="#radial-gradient"
          />
          <radialGradient
            id="radial-gradient-15"
            cx="287.38"
            cy="-956.27"
            fx="287.38"
            fy="-956.27"
            r="7.53"
            gradientTransform="translate(489.04 884.95) rotate(-44.78)"
            xlink:href="#radial-gradient"
          />
          <radialGradient
            id="radial-gradient-16"
            cx="287.38"
            cy="-956.27"
            fx="287.38"
            fy="-956.27"
            r="7.53"
            gradientTransform="translate(489.04 884.95) rotate(-44.78)"
            xlink:href="#radial-gradient"
          />
          <radialGradient
            id="radial-gradient-17"
            cx="287.38"
            cy="-956.27"
            fx="287.38"
            fy="-956.27"
            r="7.53"
            gradientTransform="translate(489.04 884.95) rotate(-44.78)"
            xlink:href="#radial-gradient"
          />
          <radialGradient
            id="radial-gradient-18"
            cx="287.38"
            cy="-956.27"
            fx="287.38"
            fy="-956.27"
            r="7.53"
            gradientTransform="translate(489.04 884.95) rotate(-44.78)"
            xlink:href="#radial-gradient"
          />
          <radialGradient
            id="radial-gradient-19"
            cx="287.38"
            cy="-956.27"
            fx="287.38"
            fy="-956.27"
            r="7.53"
            gradientTransform="translate(489.04 884.95) rotate(-44.78)"
            xlink:href="#radial-gradient"
          />
          <radialGradient
            id="radial-gradient-20"
            cx="287.25"
            cy="-956.57"
            fx="287.25"
            fy="-956.57"
            r="8.21"
            gradientTransform="translate(489.04 884.95) rotate(-44.78)"
            xlink:href="#radial-gradient"
          />
          <linearGradient
            id="linear-gradient-3"
            x1="289.16"
            y1="-958.28"
            x2="286.62"
            y2="-949.19"
            gradientTransform="translate(489.04 884.95) rotate(-44.78)"
            xlink:href="#linear-gradient"
          />
          <linearGradient
            id="linear-gradient-4"
            x1="291.49"
            y1="-957.63"
            x2="288.94"
            y2="-948.54"
            gradientTransform="translate(489.04 884.95) rotate(-44.78)"
            xlink:href="#linear-gradient"
          />
        </defs>
        <g class="cls-25">
          <g id="Layer_2" data-name="Layer 2">
            <g id="Layer_1-2" data-name="Layer 1">
              <g class="hehe">
                <g>
                  <g>
                    <path
                      class="cls-24"
                      d="M8.11,32.01l-2.01-.63c-.07-.02-.13-.07-.17-.14-.02-.04-.03-.09-.03-.14l-2.74-4.95L.32,21.02c-.04-.07-.05-.15-.02-.22l.78-2.5c.02-.07.07-.13.14-.17l10.35-5.06s.02-.01.03-.02c.04-.02.1-.04.15-.04.03,0,.05,0,.08.01l2.01.63c.07.02.13.07.17.14,0,.02.02.04.02.05l5.63,10.02c.04.07.05.15.02.23l-.78,2.5c-.02.08-.08.14-.15.17l-10.34,5.14s-.05.05-.07.06c-.05.03-.12.06-.18.06-.02,0-.03,0-.05,0Z"
                    />
                    <path
                      class="cls-30"
                      d="M11.74,13.29l2.01.63h0s.68,1.23.68,1.23l.69,1.23,1.32,2.35,2.96,5.28-.78,2.5-10.41,5.18-.02.05-2.01-.63.02-.05-.54-.98-.69-1.24-1.57-2.83-2.83-5.13.78-2.5.03-.02,10.35-5.06h0M11.74,12.72c-.12,0-.24.04-.34.11L1.13,17.85c-.14.07-.28.21-.33.36L.03,20.71c-.05.15-.03.31.05.45l2.83,5.13,1.57,2.83.69,1.24.45.82c.03.22.18.41.4.48l2.01.63c.06.02.11.03.17.03.17,0,.32-.07.43-.19l10.25-5.1c.14-.07.25-.19.29-.34l.78-2.5c.05-.15.03-.32-.05-.45l-2.96-5.28-1.32-2.35-.69-1.23-.65-1.16c-.06-.15-.19-.28-.36-.33l-2.01-.63c-.06-.02-.11-.03-.17-.03h0Z"
                    />
                  </g>
                  <path
                    class="cls-26"
                    d="M18.65,26.41l-.03.1-10.41,5.18-.02.05-.16-.05c-.18-.49-.32-.99-.35-1.29-.05-.74,1.13-4.81,1.59-5.25.46-.44,2.55-1.92,3.05-1.9.49.02,3.45.97,4.52,1.3.65.2,1.36,1.14,1.81,1.86Z"
                  />
                  <path
                    class="cls-17"
                    d="M11.06,19.03c-.03.1-2.58,1.83-2.98,1.94-.4.13-1.7.26-2.1.19-.4-.06-3.13-.83-3.58-1.3-.25-.26-.67-.95-1.02-1.5l10.35-5.06c.25.75.55,1.75.51,1.9-.07.26-1.14,3.75-1.18,3.83Z"
                  />
                  <line
                    class="cls-4"
                    x1="13.08"
                    y1="23.38"
                    x2="17.4"
                    y2="24.72"
                  />
                  <polyline
                    class="cls-2"
                    points="19.4 24.01 17.27 24.69 18.62 26.5"
                  />
                  <line
                    class="cls-6"
                    x1="2.59"
                    y1="20.11"
                    x2="6.91"
                    y2="21.46"
                  />
                  <polyline
                    class="cls-5"
                    points="1.36 18.38 2.72 20.15 .58 20.88"
                  />
                  <polyline
                    class="cls-8"
                    points="11.76 13.3 12.33 14.94 13.74 13.94"
                  />
                  <line
                    class="cls-7"
                    x1="10.94"
                    y1="19.42"
                    x2="12.33"
                    y2="14.94"
                  />
                  <polyline
                    class="cls-3"
                    points="6.18 31.11 7.59 30.12 8.14 31.72"
                  />
                  <line
                    class="cls-1"
                    x1="9.03"
                    y1="25.56"
                    x2="7.59"
                    y2="30.12"
                  />
                  <g>
                    <path
                      class="cls-27"
                      d="M9.47,25.99s-.06,0-.08-.01l-.84-.26c-.07-.02-.19-.09-.23-.16l-1.81-3.45c-.04-.07-.04-.15-.02-.22l.32-1.02c.02-.07.08-.14.14-.17l3.34-1.69s.09-.03.13-.03c.03,0,.06,0,.09.01l1.04.33c.07.02.13.07.17.14l1.79,3.29c.04.07.04.15.02.22l-.32,1.02c-.02.07-.07.13-.14.17l-3.45,1.81s-.09.03-.13.03Z"
                    />
                    <path
                      class="cls-30"
                      d="M10.41,19.25l.13.04.78.24.13.04,1.79,3.29-.32,1.02-3.45,1.81-.06-.02-.78-.24-.06-.02-1.81-3.45.32-1.02,3.34-1.69M10.41,18.68c-.09,0-.18.02-.26.06l-3.34,1.69c-.14.07-.24.19-.29.34l-.32,1.02c-.05.15-.03.3.04.44l1.81,3.45c.07.14.19.24.34.28l.06.02.78.24.06.02c.06.02.11.03.17.03.09,0,.18-.02.27-.07l3.45-1.81c.14-.07.24-.19.28-.34l.32-1.02c.05-.15.03-.31-.04-.45l-1.79-3.29c-.07-.13-.19-.23-.33-.28l-.13-.04-.78-.24-.13-.04c-.06-.02-.11-.03-.17-.03h0Z"
                    />
                  </g>
                </g>
                <polygon
                  class="cls-18"
                  points="14.43 15.15 4.97 28.84 3.41 26.01 12.11 13.41 13.75 13.92 13.75 13.93 14.43 15.15"
                />
                <polygon
                  class="cls-19"
                  points="16.44 18.73 7.59 31.55 6.18 31.11 6.2 31.05 5.66 30.08 15.12 16.38 16.44 18.73"
                />
                <g class="cls-22">
                  <path
                    class="cls-23"
                    d="M11.8,13.92l1.55.48.58,1.03.69,1.23,1.32,2.35,2.84,5.06-.63,2.02-10.06,5-1.46-.45-.47-.85-.69-1.24-1.57-2.83-2.71-4.91.63-2.03,9.96-4.87M11.74,13.29h0S1.38,18.37,1.38,18.37l-.03.02-.78,2.5,2.83,5.13,1.57,2.83.69,1.24.54.98-.02.05,2.01.63.02-.05,10.41-5.18.78-2.5-2.96-5.28-1.32-2.35-.69-1.23-.68-1.21h0s-2.01-.64-2.01-.64h0Z"
                  />
                </g>
              </g>
              <g class="kecil">
                <g>
                  <g>
                    <path
                      class="cls-28"
                      d="M19.26,10.01s-.09-.02-.13-.05l-1.15-1.16s-.05-.08-.05-.13c0,0,.23-7.2.23-7.21,0-.05.02-.1.05-.13l.93-.93s.08-.05.13-.05c.01,0,.03,0,.04,0,0,0,7.18-.17,7.18-.17.05,0,.09.02.13.05l1.15,1.16s.05.08.05.13l-.18,7.21c.02.07.02.14-.03.19l-.93.93s-.08.05-.13.05c-.03,0-.06,0-.09-.02,0,0-7.19.13-7.19.13Z"
                    />
                    <path
                      class="cls-30"
                      d="M26.49.36l1.15,1.16-.19,7.25.03.03-.93.93-.03-.03h-.7s-.88.03-.88.03l-2.02.04-3.66.06-1.15-1.16v-.02s.23-7.19.23-7.19h0s.93-.93.93-.93h0s.87-.02.87-.02l.88-.02,1.68-.04,3.78-.09M26.49,0s0,0,0,0l-3.78.09-1.68.04-.88.02-.83.02s-.02,0-.03,0h0c-.09,0-.19.03-.26.1l-.93.93c-.07.07-.11.16-.11.25,0,.02,0,.03,0,.05l-.23,7.13c0,.1.03.21.1.29l1.15,1.16c.07.07.16.11.26.11,0,0,0,0,0,0l3.66-.06,2.02-.04.88-.02h.63s.07,0,.1,0c.09,0,.18-.03.24-.09l.93-.93c.07-.07.11-.16.11-.25,0-.04,0-.09-.02-.13l.18-7.14c0-.1-.04-.19-.1-.26l-1.15-1.16c-.07-.07-.16-.11-.26-.11h0Z"
                    />
                  </g>
                  <path
                    class="cls-26"
                    d="M27.59,1.47l.05.05-.19,7.25.03.03-.08.08c-.33-.04-.64-.11-.81-.19-.42-.19-2.33-2.03-2.43-2.41-.11-.38-.31-1.97-.15-2.24.15-.26,1.54-1.62,2.04-2.11.3-.3,1.02-.42,1.55-.46Z"
                  />
                  <path
                    class="cls-17"
                    d="M21.3,3.51s.25,1.96.2,2.21c-.05.26-.35,1.01-.51,1.21-.15.2-1.37,1.48-1.76,1.59-.21.06-.72.09-1.12.12l.23-7.19c.49.08,1.13.21,1.19.27.12.11,1.73,1.72,1.77,1.77Z"
                  />
                  <line
                    class="cls-13"
                    x1="24.29"
                    y1="3.66"
                    x2="26.3"
                    y2="1.67"
                  />
                  <polyline
                    class="cls-15"
                    points="26.48 .36 26.24 1.73 27.63 1.52"
                  />
                  <line
                    class="cls-16"
                    x1="19.43"
                    y1="8.49"
                    x2="21.43"
                    y2="6.5"
                  />
                  <polyline
                    class="cls-11"
                    points="18.11 8.67 19.48 8.43 19.26 9.83"
                  />
                  <polyline
                    class="cls-14"
                    points="18.34 1.44 19.42 1.61 19.28 .54"
                  />
                  <line
                    class="cls-12"
                    x1="21.48"
                    y1="3.68"
                    x2="19.42"
                    y2="1.61"
                  />
                  <polyline
                    class="cls-9"
                    points="26.54 9.72 26.41 8.66 27.45 8.82"
                  />
                  <line
                    class="cls-10"
                    x1="24.31"
                    y1="6.53"
                    x2="26.41"
                    y2="8.66"
                  />
                  <g>
                    <path
                      class="cls-29"
                      d="M21.66,6.92s-.09-.02-.13-.05l-.47-.47s-.05-.08-.05-.13l.04-2.34s.02-.09.05-.12l.42-.42s.14-.11.19-.11c0,0,2.34-.02,2.34-.02.05,0,.09.02.13.05l.47.47s.05.08.05.13v2.43s-.03.09-.06.13l-.39.39s-.11.08-.15.08h-2.43Z"
                    />
                    <path
                      class="cls-30"
                      d="M24.06,3.43l.47.47v2.43s-.04.03-.04.03l-.36.36-.03.03h-2.43s-.47-.48-.47-.48l.04-2.34.06-.06.36-.36.06-.06,2.34-.02M24.06,3.07s0,0,0,0l-2.34.02c-.09,0-.18.04-.25.1l-.06.06-.36.36-.06.06c-.07.07-.1.16-.11.25l-.04,2.34c0,.1.04.19.1.26l.47.47c.07.07.16.11.25.11h2.43s0,0,0,0c.09,0,.19-.04.25-.1l.39-.39c.07-.07.13-.19.13-.28v-2.43c0-.1-.03-.19-.1-.25l-.47-.47c-.07-.07-.16-.11-.26-.11h0Z"
                    />
                  </g>
                </g>
                <polygon
                  class="cls-20"
                  points="20.15 .51 24.93 9.73 22.92 9.77 18.51 1.28 19.27 .53 19.28 .54 20.15 .51"
                />
                <polygon
                  class="cls-21"
                  points="22.71 .45 27.19 9.08 26.54 9.72 26.52 9.7 25.82 9.71 21.03 .49 22.71 .45"
                />
                <g class="cls-22">
                  <path
                    class="cls-23"
                    d="M26.34.72l.93.94-.18,7.01-.68.67h-.6s-.88.03-.88.03l-2.02.04-3.5.06-.93-.94.22-6.92.72-.71.74-.02.88-.02,1.68-.04,3.62-.09M26.49.36l-3.78.09-1.68.04-.88.02-.87.02h0s-.93.92-.93.92h0s-.23,7.19-.23,7.19v.02s1.15,1.16,1.15,1.16l3.66-.06,2.02-.04.88-.02h.7s.03.01.03.01l.93-.93-.03-.03.19-7.25-1.15-1.16h0Z"
                  />
                </g>
              </g>
            </g>
          </g>
        </g>
      </svg>
