<?xml version="1.0" encoding="UTF-8"?>
<svg xmlns="http://www.w3.org/2000/svg" xmlns:xlink="http://www.w3.org/1999/xlink" viewBox="0 0 29.87 29.22">
  <defs>
    <style>
      .cls-1 {
        fill: url(#radial-gradient-6);
      }

      .cls-1, .cls-2, .cls-3, .cls-4, .cls-5, .cls-6, .cls-7, .cls-8 {
        stroke: #082b61;
        stroke-linecap: round;
        stroke-linejoin: round;
        stroke-width: .88px;
      }

      .cls-2 {
        fill: url(#radial-gradient-5);
      }

      .cls-3 {
        fill: url(#radial-gradient-4);
      }

      .cls-4 {
        fill: url(#radial-gradient-7);
      }

      .cls-5 {
        fill: url(#radial-gradient-8);
      }

      .cls-6 {
        fill: url(#radial-gradient-9);
      }

      .cls-7 {
        fill: url(#radial-gradient-3);
      }

      .cls-8 {
        fill: url(#radial-gradient-2);
      }

      .cls-9, .cls-10, .cls-11, .cls-12 {
        mix-blend-mode: overlay;
      }

      .cls-9, .cls-13 {
        fill: #fff;
      }

      .cls-14 {
        fill: url(#radial-gradient);
      }

      .cls-15 {
        isolation: isolate;
      }

      .cls-16 {
        fill: #2868c7;
        mix-blend-mode: multiply;
        opacity: .7;
      }

      .cls-10 {
        fill: url(#linear-gradient);
      }

      .cls-11 {
        fill: url(#linear-gradient-2);
      }

      .cls-17 {
        fill: url(#radial-gradient-10);
      }

      .cls-18 {
        fill: #082b61;
      }
    </style>
    <radialGradient id="radial-gradient" cx="30.99" cy="-410.72" fx="30.99" fy="-410.72" r="18.97" gradientTransform="translate(139.14 398.66) rotate(-22.86)" gradientUnits="userSpaceOnUse">
      <stop offset="0" stop-color="#1372ff"/>
      <stop offset="1" stop-color="#0e52b8"/>
    </radialGradient>
    <radialGradient id="radial-gradient-2" cx="31.1" cy="-402.28" fx="31.1" fy="-402.28" r="16.27" xlink:href="#radial-gradient"/>
    <radialGradient id="radial-gradient-3" cx="31.1" cy="-410.47" fx="31.1" fy="-410.47" r="18.4" xlink:href="#radial-gradient"/>
    <radialGradient id="radial-gradient-4" cx="26.41" cy="-402.28" fx="26.41" fy="-402.28" r="2.44" xlink:href="#radial-gradient"/>
    <radialGradient id="radial-gradient-5" cx="31.1" cy="-410.47" fx="31.1" fy="-410.47" r="18.4" xlink:href="#radial-gradient"/>
    <radialGradient id="radial-gradient-6" cx="31.1" cy="-410.47" fx="31.1" fy="-410.47" r="18.4" xlink:href="#radial-gradient"/>
    <radialGradient id="radial-gradient-7" cx="31.1" cy="-410.47" fx="31.1" fy="-410.47" r="18.4" xlink:href="#radial-gradient"/>
    <radialGradient id="radial-gradient-8" cx="31.1" cy="-410.47" fx="31.1" fy="-410.47" r="18.4" xlink:href="#radial-gradient"/>
    <radialGradient id="radial-gradient-9" cx="31.1" cy="-410.47" fx="31.1" fy="-410.47" r="18.4" xlink:href="#radial-gradient"/>
    <radialGradient id="radial-gradient-10" cx="30.77" cy="-411.22" fx="30.77" fy="-411.22" r="20.05" xlink:href="#radial-gradient"/>
    <linearGradient id="linear-gradient" x1="35.44" y1="-415.39" x2="29.22" y2="-393.19" gradientTransform="translate(139.14 398.66) rotate(-22.86)" gradientUnits="userSpaceOnUse">
      <stop offset="0" stop-color="#fff"/>
      <stop offset="1" stop-color="#fff" stop-opacity="0"/>
    </linearGradient>
    <linearGradient id="linear-gradient-2" x1="41.13" y1="-413.8" x2="34.9" y2="-391.6" xlink:href="#linear-gradient"/>
  </defs>
  <g class="cls-15">
    <g id="Layer_2" data-name="Layer 2">
      <g id="Layer_1-2" data-name="Layer 1">
        <g>
          <g>
            <g>
              <path class="cls-14" d="M19.02,28.78c-.06,0-.11-.01-.17-.03-.07-.03-.13-.08-.18-.14l-8.06-3.07-8.34-3.19c-.11-.04-.2-.13-.25-.24l-1.55-3.67c-.05-.11-.05-.23,0-.34L7.55,2.02c.03-.13.12-.25.25-.3l2.96-1.25c.05-.02.11-.04.17-.04s.11.01.17.03c.03.01.06.03.08.04l3.92,1.46,3.85,1.45,8.65,3.24c.11.04.2.13.25.24l1.55,3.67c.05.11.05.24,0,.34l-7,16.18c0,.17-.09.34-.24.41l-2.96,1.25c-.05.02-.11.04-.17.04Z"/>
              <path class="cls-18" d="M10.93.87v.02s2,.74,2,.74l2.01.75,3.85,1.45,8.65,3.24,1.55,3.67-7.04,16.27.03.08-2.96,1.25-.03-.08-1.59-.61-2.02-.77-4.61-1.75-8.34-3.19-1.55-3.67.02-.05L7.98,2.14v-.02s2.96-1.25,2.96-1.25M10.92,0c-.11,0-.22.02-.33.06l-2.96,1.25c-.21.09-.38.26-.47.48-.02.04-.03.08-.04.12L.09,17.87s-.03.06-.03.07c-.09.22-.09.46,0,.67l1.55,3.67c.09.22.27.39.5.48l8.34,3.19,4.61,1.76,2.02.77,1.34.51c.08.07.17.13.27.17.11.04.22.06.33.06s.23-.02.34-.07l2.96-1.25c.33-.14.53-.45.54-.79l6.93-16.03c.1-.22.1-.47,0-.69l-1.55-3.67c-.09-.22-.28-.4-.5-.48l-8.65-3.24-3.85-1.45-2.02-.75-1.9-.71s-.05-.02-.07-.03c-.11-.05-.23-.07-.35-.07h0Z"/>
            </g>
            <path class="cls-16" d="M28.93,10.6l.06.15-7.04,16.27.03.08-.24.1c-.7-.39-1.35-.84-1.67-1.16-.78-.81-3.42-6.72-3.31-7.68.11-.96,1.09-4.75,1.69-5.21.59-.46,4.97-2.27,6.54-2.93.95-.4,2.7-.01,3.93.38Z"/>
            <path class="cls-9" d="M12.82,9.47c.06.15-1.22,4.67-1.56,5.2-.34.54-1.73,1.97-2.26,2.29-.53.32-4.47,2.11-5.44,2.01-.54-.06-1.71-.44-2.66-.75L7.98,2.14c1.03.63,2.37,1.5,2.46,1.71.17.37,2.35,5.49,2.39,5.63Z"/>
            <line class="cls-8" x1="19.45" y1="12.55" x2="25.81" y2="9.87"/>
            <polyline class="cls-7" points="27.43 7.07 25.63 9.95 28.98 10.74"/>
            <line class="cls-3" x1="4.02" y1="19.06" x2="10.38" y2="16.38"/>
            <polyline class="cls-2" points=".88 18.26 4.2 18.98 2.43 21.93"/>
            <polyline class="cls-1" points="8 2.1 10.28 3.46 10.94 .9"/>
            <line class="cls-4" x1="13.07" y1="10.04" x2="10.28" y2="3.46"/>
            <polyline class="cls-5" points="19.02 28.34 19.7 25.8 21.9 27.13"/>
            <line class="cls-6" x1="16.88" y1="19.08" x2="19.7" y2="25.8"/>
            <g>
              <path class="cls-17" d="M16.16,19.79s-.09,0-.12-.02l-5.51-2.24c-.11-.04-.19-.13-.24-.24l-.63-1.5c-.05-.11-.05-.23,0-.34l2.22-5.26c.04-.11.13-.19.23-.23l1.54-.65c.05-.02.11-.03.17-.03.05,0,.11.01.16.03l5.32,2.08c.11.04.2.13.25.24l.63,1.5c.04.11.05.23,0,.34l-2.24,5.51c-.04.11-.13.19-.23.24l-1.24.52c-.07.03-.2.06-.3.06Z"/>
              <path class="cls-18" d="M13.82,9.73l5.32,2.08.63,1.5-2.24,5.51-.09.04-1.15.48-.09.04-5.51-2.24-.63-1.5,2.22-5.26.19-.08,1.15-.48.19-.08M13.82,8.85c-.12,0-.23.02-.34.07l-.19.08-1.15.48-.19.08c-.21.09-.38.26-.47.47l-2.22,5.26c-.09.22-.09.46,0,.68l.63,1.5c.09.21.26.38.48.47l5.51,2.24c.11.04.22.06.33.06s.23-.02.34-.07l.09-.04,1.15-.48.09-.04c.21-.09.38-.26.47-.48l2.24-5.51c.09-.22.09-.46,0-.67l-.63-1.5c-.09-.22-.27-.39-.49-.48l-5.32-2.08c-.1-.04-.21-.06-.32-.06h0Z"/>
            </g>
          </g>
          <polygon class="cls-10" points="12.93 1.63 15.38 26.89 10.77 25.13 8.52 1.89 10.93 .87 10.94 .89 12.93 1.63"/>
          <polygon class="cls-11" points="18.79 3.83 21.1 27.47 19.02 28.34 18.99 28.26 17.4 27.66 14.94 2.39 18.79 3.83"/>
          <g class="cls-12">
            <path class="cls-13" d="M10.93,1.83l1.69.63,2.01.75,3.85,1.45,8.29,3.1,1.26,2.98-6.8,15.72-2.14.9-1.38-.53-2.02-.77-4.61-1.75-7.99-3.06-1.26-2.98L8.65,2.79l2.28-.96M10.93.87l-2.96,1.25v.02S.9,18.22.9,18.22l-.02.05,1.55,3.67,8.34,3.19,4.61,1.75,2.02.77,1.59.61.03.08,2.96-1.25-.03-.08,7.04-16.27-1.55-3.67-8.65-3.24-3.85-1.45-2.01-.75-1.99-.74v-.02h0Z"/>
          </g>
        </g>
      </g>
    </g>
  </g>
</svg>